REM MD5 a3c34256bd51e7c5e6965b0fb8254334
FILE "PlayStation-Pepsi Sampler Disc (USA).bin" BINARY
  TRACK 01 MODE2/2352
    INDEX 01 00:00:00
  TRACK 02 AUDIO
    INDEX 00 11:57:35
    INDEX 01 11:59:35
  TRACK 03 AUDIO
    INDEX 00 14:58:23
    INDEX 01 15:00:23
REM LEADOUT 17:59:59
